<svg clip-rule="evenodd" fill-rule="evenodd" stroke-linejoin="round" stroke-miterlimit="2" viewBox="0 0 200 200" xmlns="http://www.w3.org/2000/svg"><path d="m147 103c7.61 0 42.094 19.909 45.899 26.5s3.805 46.409 0 53-38.289 26.5-45.899 26.5-42.094-19.909-45.899-26.5-3.805-46.409 0-53 38.289-26.5 45.899-26.5z" fill="#3078ed" transform="matrix(1.8867916026 0 0 1.8867916026 -177.36321353 -194.33950513)"/><path d="m.053-.38c0-.106.039-.198.116-.274.078-.076.171-.114.28-.114.107 0 .199.038.276.115s.116.169.116.277-.039.2-.116.276c-.078.076-.172.114-.282.114-.097 0-.185-.034-.262-.101-.086-.075-.128-.173-.128-.293zm.114.001c0 .083.028.152.084.206.056.053.12.08.193.08.079 0 .146-.027.201-.082.054-.055.081-.123.081-.202 0-.08-.027-.148-.08-.202-.054-.055-.12-.082-.199-.082-.078 0-.144.027-.198.082-.055.054-.082.121-.082.2z" fill="#fff" fill-rule="nonzero" transform="matrix(162.56267811 0 0 162.56267811 27.36497593 161.31704326)"/></svg>