<?xml version="1.0" encoding="UTF-8" standalone="no"?>
<!DOCTYPE svg PUBLIC "-//W3C//DTD SVG 1.1//EN" "http://www.w3.org/Graphics/SVG/1.1/DTD/svg11.dtd">
<svg width="100%" height="100%" viewBox="0 0 457 211" version="1.1" xmlns="http://www.w3.org/2000/svg" xmlns:xlink="http://www.w3.org/1999/xlink" xml:space="preserve" xmlns:serif="http://www.serif.com/" style="fill-rule:evenodd;clip-rule:evenodd;stroke-linejoin:round;stroke-miterlimit:2;">
    <g transform="matrix(1,0,0,1,-438.115,-477.495)">
        <g transform="matrix(1.29144,0,0,1.29144,-666.75,407.758)">
            <g transform="matrix(1.53774,0,0,1.53774,704.453,-104.387)">
                <path d="M147,103C154.61,103 189.094,122.909 192.899,129.5C196.704,136.091 196.704,175.909 192.899,182.5C189.094,189.091 154.61,209 147,209C139.39,209 104.906,189.091 101.101,182.5C97.296,175.909 97.296,136.091 101.101,129.5C104.906,122.909 139.39,103 147,103Z" style="fill:rgb(48,120,237);"/>
            </g>
            <g transform="matrix(132.489,0,0,132.489,871.307,185.474)">
                <path d="M0.053,-0.38C0.053,-0.486 0.092,-0.578 0.169,-0.654C0.247,-0.73 0.34,-0.768 0.449,-0.768C0.556,-0.768 0.648,-0.73 0.725,-0.653C0.802,-0.576 0.841,-0.484 0.841,-0.376C0.841,-0.268 0.802,-0.176 0.725,-0.1C0.647,-0.024 0.553,0.014 0.443,0.014C0.346,0.014 0.258,-0.02 0.181,-0.087C0.095,-0.162 0.053,-0.26 0.053,-0.38ZM0.167,-0.379C0.167,-0.296 0.195,-0.227 0.251,-0.173C0.307,-0.12 0.371,-0.093 0.444,-0.093C0.523,-0.093 0.59,-0.12 0.645,-0.175C0.699,-0.23 0.726,-0.298 0.726,-0.377C0.726,-0.457 0.699,-0.525 0.646,-0.579C0.592,-0.634 0.526,-0.661 0.447,-0.661C0.369,-0.661 0.303,-0.634 0.249,-0.579C0.194,-0.525 0.167,-0.458 0.167,-0.379Z" style="fill:white;fill-rule:nonzero;"/>
            </g>
        </g>
        <g transform="matrix(1.5917,0,0,1.5917,-880.905,-10.0486)">
            <g transform="matrix(107.496,0,0,107.496,951,401)">
                <path d="M0.069,-0.476L0.18,-0.476L0.18,-0.432C0.218,-0.47 0.261,-0.489 0.31,-0.489C0.365,-0.489 0.408,-0.471 0.439,-0.437C0.466,-0.407 0.479,-0.359 0.479,-0.292L0.479,0L0.369,0L0.369,-0.266C0.369,-0.313 0.362,-0.345 0.349,-0.363C0.336,-0.381 0.313,-0.39 0.28,-0.39C0.243,-0.39 0.217,-0.378 0.202,-0.354C0.187,-0.33 0.18,-0.289 0.18,-0.229L0.18,0L0.069,0L0.069,-0.476Z" style="fill:rgb(30,33,37);fill-rule:nonzero;"/>
            </g>
            <g transform="matrix(107.496,0,0,107.496,1002.84,401)">
                <path d="M0.219,-0.088L0.005,-0.476L0.133,-0.476L0.278,-0.202L0.414,-0.476L0.538,-0.476L0.159,0.259L0.034,0.259L0.219,-0.088Z" style="fill:rgb(30,33,37);fill-rule:nonzero;"/>
            </g>
            <g transform="matrix(107.496,0,0,107.496,1055.88,401)">
                <path d="M0.217,-0.257L0.046,-0.476L0.177,-0.476L0.283,-0.337L0.391,-0.476L0.525,-0.476L0.35,-0.257L0.553,0L0.422,0L0.283,-0.178L0.14,0L0.005,0L0.217,-0.257Z" style="fill:rgb(30,33,37);fill-rule:nonzero;"/>
            </g>
        </g>
        <g transform="matrix(2.15331,0,0,2.15331,-1694.37,-1793.99)">
            <g>
                <g transform="matrix(23.0385,0,0,23.0385,1149,1145)">
                    <path d="M0.093,-0.382L0.013,-0.382L0.013,-0.433L0.093,-0.433L0.093,-0.611L0.152,-0.611L0.152,-0.433L0.239,-0.433L0.239,-0.382L0.152,-0.382L0.152,0L0.093,0L0.093,-0.382Z" style="fill:rgb(30,33,37);fill-rule:nonzero;"/>
                </g>
                <g transform="matrix(23.0385,0,0,23.0385,1153.56,1145)">
                    <path d="M0.08,0L0.08,-0.611L0.137,-0.611L0.137,-0.366C0.155,-0.394 0.176,-0.415 0.202,-0.428C0.227,-0.442 0.257,-0.449 0.29,-0.449C0.339,-0.449 0.377,-0.436 0.405,-0.408C0.432,-0.381 0.446,-0.343 0.446,-0.294L0.446,0L0.385,0L0.385,-0.267C0.385,-0.31 0.376,-0.343 0.358,-0.364C0.34,-0.385 0.312,-0.395 0.274,-0.395C0.228,-0.395 0.194,-0.381 0.173,-0.354C0.151,-0.327 0.14,-0.284 0.14,-0.226L0.14,0L0.08,0Z" style="fill:rgb(30,33,37);fill-rule:nonzero;"/>
                </g>
                <g transform="matrix(23.0385,0,0,23.0385,1164.41,1145)">
                    <path d="M0.381,-0.266C0.378,-0.306 0.365,-0.337 0.341,-0.358C0.318,-0.38 0.286,-0.391 0.246,-0.391C0.21,-0.391 0.179,-0.38 0.155,-0.357C0.13,-0.334 0.116,-0.304 0.112,-0.266L0.381,-0.266ZM0.452,-0.215L0.108,-0.215C0.11,-0.159 0.124,-0.115 0.15,-0.083C0.176,-0.051 0.212,-0.035 0.256,-0.035C0.288,-0.035 0.316,-0.044 0.34,-0.061C0.364,-0.078 0.384,-0.104 0.4,-0.139L0.455,-0.109C0.433,-0.065 0.406,-0.033 0.374,-0.012C0.342,0.009 0.302,0.019 0.256,0.019C0.192,0.019 0.141,-0.002 0.102,-0.045C0.063,-0.087 0.043,-0.143 0.043,-0.212C0.043,-0.283 0.062,-0.34 0.101,-0.384C0.14,-0.427 0.191,-0.449 0.254,-0.449C0.314,-0.449 0.362,-0.429 0.398,-0.389C0.434,-0.349 0.452,-0.295 0.452,-0.228L0.452,-0.215Z" style="fill:rgb(30,33,37);fill-rule:nonzero;"/>
                </g>
                <g transform="matrix(23.0385,0,0,23.0385,1174.71,1145)">
                    <path d="M0.14,0L0.08,0L0.08,-0.433L0.14,-0.433L0.14,-0.365C0.154,-0.393 0.173,-0.413 0.197,-0.428C0.22,-0.442 0.247,-0.449 0.278,-0.449C0.309,-0.449 0.336,-0.442 0.359,-0.427C0.381,-0.413 0.398,-0.392 0.41,-0.364C0.427,-0.392 0.449,-0.414 0.474,-0.428C0.499,-0.442 0.528,-0.449 0.561,-0.449C0.607,-0.449 0.643,-0.435 0.669,-0.407C0.696,-0.38 0.709,-0.341 0.709,-0.293L0.709,0L0.649,0L0.649,-0.269C0.649,-0.311 0.64,-0.343 0.623,-0.365C0.605,-0.386 0.579,-0.397 0.545,-0.397C0.504,-0.397 0.473,-0.383 0.454,-0.356C0.434,-0.329 0.425,-0.287 0.425,-0.228L0.425,0L0.365,0L0.365,-0.269C0.365,-0.313 0.357,-0.346 0.34,-0.366C0.324,-0.387 0.298,-0.397 0.263,-0.397C0.221,-0.397 0.19,-0.383 0.17,-0.356C0.15,-0.329 0.14,-0.286 0.14,-0.228L0.14,0Z" style="fill:rgb(30,33,37);fill-rule:nonzero;"/>
                </g>
                <g transform="matrix(23.0385,0,0,23.0385,1191.74,1145)">
                    <path d="M0.381,-0.266C0.378,-0.306 0.365,-0.337 0.341,-0.358C0.318,-0.38 0.286,-0.391 0.246,-0.391C0.21,-0.391 0.179,-0.38 0.155,-0.357C0.13,-0.334 0.116,-0.304 0.112,-0.266L0.381,-0.266ZM0.452,-0.215L0.108,-0.215C0.11,-0.159 0.124,-0.115 0.15,-0.083C0.176,-0.051 0.212,-0.035 0.256,-0.035C0.288,-0.035 0.316,-0.044 0.34,-0.061C0.364,-0.078 0.384,-0.104 0.4,-0.139L0.455,-0.109C0.433,-0.065 0.406,-0.033 0.374,-0.012C0.342,0.009 0.302,0.019 0.256,0.019C0.192,0.019 0.141,-0.002 0.102,-0.045C0.063,-0.087 0.043,-0.143 0.043,-0.212C0.043,-0.283 0.062,-0.34 0.101,-0.384C0.14,-0.427 0.191,-0.449 0.254,-0.449C0.314,-0.449 0.362,-0.429 0.398,-0.389C0.434,-0.349 0.452,-0.295 0.452,-0.228L0.452,-0.215Z" style="fill:rgb(30,33,37);fill-rule:nonzero;"/>
                </g>
            </g>
        </g>
    </g>
</svg>
